# xmcd
#
# Track frame offsets: 
#        150
#        12437
#        26112
#        36300
#        55512
#        67310
#        79907
#        94790
#        114437
#        126337
#
# Disc length: 1850 seconds
#
# Revision: 4
# Processed by: cddbd v1.5.2PL0 Copyright (c) Steve Scherf et al.
# Submitted via: ExactAudioCopy v0.99pb5
#
DISCID=8807380a
DTITLE=Ken Mellons - Where Forever Begins
DYEAR=1995
DGENRE=Country
TTITLE0=Don't Make Me Have To Come In There
TTITLE1=I Went Crazy For Awhile
TTITLE2=Rub-A-Dubbin'
TTITLE3=Where Forever Begins
TTITLE4=He'll Never Be A Lawyer
TTITLE5=Stranger In Your Eyes
TTITLE6=Memory Remover
TTITLE7=He Ain't Even Cold Yet
TTITLE8=Ever Ready
TTITLE9=With His Hands
EXTD=
EXTT0=
EXTT1=
EXTT2=
EXTT3=
EXTT4=
EXTT5=
EXTT6=
EXTT7=
EXTT8=
EXTT9=
PLAYORDER=
